#N canvas 436 11 1200 1030 12;
#X obj 345 231 inlet;
#X obj 402 627 outlet~;
#X obj 624 303 r attack;
#X obj 687 303 r decay;
#X obj 745 303 r sustain;
#X obj 197 308 r release;
#X obj 402 602 line~;
#X obj 408 446 pack 1 0;
#X obj 316 442 0;
#X text 342 209 input = note velocity;
#X text 392 263 bang right when nonzero;
#X text 446 602 line from 0 to 1 with duration = attack;
#X obj 398 307 t b b b;
#X text 450 312 trigger 3 bangs;
#X obj 632 386 delay;
#X obj 662 356 + 1;
#X obj 692 435 pack 0 0 0;
#X text 367 417 Attack: pack "1" with attack duration;
#X obj 692 458 route 0;
#X text 423 557 set line~ to zero initially;
#X text 746 396 Decay & Sustain;
#X msg 338 340 stop;
#X obj 147 422 pack 0 0;
#X text 103 397 Release;
#X text 294 164 Attack / Decay / Sustain / Release;
#X obj 345 257 sel 0;
#X connect 0 0 25 0;
#X connect 2 0 7 1;
#X connect 2 0 15 0;
#X connect 3 0 16 2;
#X connect 4 0 16 1;
#X connect 5 0 22 1;
#X connect 6 0 1 0;
#X connect 7 0 6 0;
#X connect 8 0 6 0;
#X connect 12 0 14 0;
#X connect 12 1 7 0;
#X connect 12 2 8 0;
#X connect 14 0 16 0;
#X connect 15 0 14 1;
#X connect 16 0 18 0;
#X connect 18 0 6 0;
#X connect 21 0 14 0;
#X connect 22 0 6 0;
#X connect 25 0 21 0;
#X connect 25 0 22 0;
#X connect 25 1 12 0;
