#N canvas 3591 9 1200 1237 12;
#X obj 40 150 inlet;
#X obj 102 542 outlet~;
#X obj 314 190 r attack;
#X obj 377 190 r decay;
#X obj 435 191 r sustain;
#X obj 510 191 r release;
#X obj 102 492 line~;
#X obj 40 182 select 0;
#X obj 127 401 pack 1 0;
#X obj 59 316 0;
#X text 28 128 input = note velocity;
#X text 104 182 bang right when nonzero;
#X text 86 320 set line~ to zero;
#X text 146 492 line from 0 to 1 with duration = attack;
#X obj 96 229 t b b b;
#X text 163 236 trigger 3 bangs;
#X obj 306 286 delay;
#X obj 335 257 + 1;
#X obj 335 323 pack 0 0 0;
#X text 122 384 Attack: pack "1" with attack duration;
#X obj 335 346 route 0;
#X connect 0 0 7 0;
#X connect 2 0 8 1;
#X connect 2 0 17 0;
#X connect 3 0 18 2;
#X connect 4 0 18 1;
#X connect 6 0 1 0;
#X connect 7 1 14 0;
#X connect 8 0 6 0;
#X connect 9 0 6 0;
#X connect 14 0 16 0;
#X connect 14 1 8 0;
#X connect 14 2 9 0;
#X connect 16 0 18 0;
#X connect 17 0 16 1;
#X connect 18 0 20 0;
