#N canvas 120 228 1200 587 12;
#X obj 232 456 notein;
#X floatatom 1007 180 3 0 0 0 - - -;
#X floatatom 988 143 3 0 0 0 - - -;
#X obj 988 114 ctlin;
#X obj 988 171 bng 20 250 50 0 empty empty empty 17 7 0 10 -262144
-1 -1;
#X obj 237 695 dac~;
#X obj 843 114 notein;
#X text 893 168 midi number;
#X text 893 142 velocity;
#X text 843 87 MIDI NOTE;
#X text 988 87 MIDI CONTROL;
#X text 1026 142 velocity;
#X text 1026 168 midi number;
#X obj 237 666 *~;
#X floatatom 843 143 5 0 0 0 - - -;
#X floatatom 843 171 5 0 0 0 - - -;
#X obj 233 527 pack 0 0 0;
#X obj 249 160 vsl 15 128 0 127 0 1 empty empty Attack 0 -9 0 10 -262144
-1 -1 200 0;
#X obj 289 160 vsl 15 128 0 127 0 1 empty empty Decay 0 -9 0 10 -262144
-1 -1 9100 0;
#X obj 334 160 vsl 15 128 0 127 0 1 empty empty Sustain 0 -9 0 10 -262144
-1 -1 8200 0;
#X obj 380 160 vsl 15 128 0 127 0 1 empty empty Release 0 -9 0 10 -262144
-1 -1 2300 0;
#X obj 250 375 s attack;
#X obj 297 339 s decay;
#X obj 406 362 s sustain;
#X obj 506 423 s release;
#X obj 209 589 note;
#X obj 295 11 bng 15 250 50 0 empty empty empty 17 7 0 10 -262144 -1
-1;
#X obj 233 498 poly 4 1;
#X obj 233 556 route 1 2 3 4;
#X obj 231 616 note;
#X obj 263 597 note;
#X obj 309 608 note;
#X obj 194 160 vsl 15 128 0 127 0 0 empty empty Volume 0 -9 0 10 -262144
-1 -1 4800 0;
#X obj 160 347 s volume;
#X obj 358 608 r volume;
#X obj 117 20 ctlin;
#X obj 194 296 / 127;
#X obj 245 297 midilog 10000;
#X obj 300 315 midilog 10000;
#X obj 500 336 midilog 10000;
#X obj 93 57 slider 82 83 28 29 81;
#X obj 407 335 midilog 1;
#X connect 0 0 27 0;
#X connect 0 1 27 1;
#X connect 2 0 4 0;
#X connect 3 0 2 0;
#X connect 3 1 1 0;
#X connect 6 0 15 0;
#X connect 6 1 14 0;
#X connect 13 0 5 0;
#X connect 13 0 5 1;
#X connect 16 0 28 0;
#X connect 17 0 37 0;
#X connect 18 0 38 0;
#X connect 19 0 41 0;
#X connect 20 0 39 0;
#X connect 25 0 13 0;
#X connect 26 0 17 0;
#X connect 26 0 18 0;
#X connect 26 0 19 0;
#X connect 26 0 20 0;
#X connect 27 0 16 0;
#X connect 27 1 16 1;
#X connect 27 2 16 2;
#X connect 28 0 25 0;
#X connect 28 1 29 0;
#X connect 28 2 30 0;
#X connect 28 3 31 0;
#X connect 29 0 13 0;
#X connect 30 0 13 0;
#X connect 31 0 13 0;
#X connect 32 0 36 0;
#X connect 34 0 13 1;
#X connect 35 0 40 0;
#X connect 35 1 40 1;
#X connect 36 0 33 0;
#X connect 37 0 21 0;
#X connect 38 0 22 0;
#X connect 39 0 24 0;
#X connect 40 0 32 0;
#X connect 40 1 17 0;
#X connect 40 2 18 0;
#X connect 40 3 19 0;
#X connect 40 4 20 0;
#X connect 41 0 23 0;
#X coords 0 0 2 2 0 0 0;
