#N canvas 255 134 1157 733 12;
#X obj 596 403 notein;
#X floatatom 611 254 3 0 0 0 - - -;
#X floatatom 611 226 3 0 0 0 - - -;
#X obj 611 197 ctlin;
#X obj 619 610 dac~;
#X obj 466 197 notein;
#X text 516 251 midi number;
#X text 516 225 velocity;
#X text 466 170 MIDI NOTE;
#X text 611 170 MIDI CONTROL;
#X text 649 225 velocity;
#X text 649 251 midi number;
#X obj 619 581 *~;
#X floatatom 466 226 5 0 0 0 - - -;
#X floatatom 466 254 5 0 0 0 - - -;
#X obj 596 461 pack 0 0 0;
#X obj 196 321 vsl 15 128 0 127 0 1 empty empty Attack 0 -9 0 10 -262144
-1 -1 0 0;
#X obj 236 321 vsl 15 128 0 127 0 1 empty empty Decay 0 -9 0 10 -262144
-1 -1 11600 0;
#X obj 281 321 vsl 15 128 0 127 0 1 empty empty Sustain 0 -9 0 10 -262144
-1 -1 1500 0;
#X obj 327 321 vsl 15 128 0 127 0 1 empty empty Release 0 -9 0 10 -262144
-1 -1 1400 0;
#X obj 143 496 s attack;
#X obj 245 496 s decay;
#X obj 345 496 s sustain;
#X obj 419 496 s release;
#X obj 597 525 note;
#X obj 596 432 poly 4 1;
#X obj 596 490 route 1 2 3 4;
#X obj 619 552 note;
#X obj 651 525 note;
#X obj 685 552 note;
#X obj 141 321 vsl 15 128 0 127 0 0 empty empty Volume 0 -9 0 10 -262144
-1 -1 3200 0;
#X obj 79 496 s volume;
#X obj 734 552 r volume;
#X obj 141 181 ctlin;
#X obj 79 465 / 127;
#X obj 143 465 midilog 10000;
#X obj 345 465 midilog 1;
#X text 529 134 TEST MIDI IN;
#X text 213 129 CONTROLS;
#X text 602 363 SYNTH;
#X obj 141 259 route 82 83 28 29 81;
#X obj 141 207 pack f f;
#X msg 141 233 \$2 \$1;
#X obj 787 307 r volume;
#X obj 751 205 r attack;
#X obj 751 254 r decay;
#X obj 828 205 r sustain;
#X obj 828 254 r release;
#X floatatom 787 333 5 0 0 0 - - -;
#X floatatom 751 230 5 0 0 0 - - -;
#X floatatom 751 279 5 0 0 0 - - -;
#X floatatom 828 230 5 0 0 0 - - -;
#X floatatom 828 279 5 0 0 0 - - -;
#X obj 419 465 midilog 5000;
#X obj 245 465 midilog 5000;
#X text 792 170 A/S/D/R;
#X connect 0 0 25 0;
#X connect 0 1 25 1;
#X connect 3 0 2 0;
#X connect 3 1 1 0;
#X connect 5 0 14 0;
#X connect 5 1 13 0;
#X connect 12 0 4 0;
#X connect 12 0 4 1;
#X connect 15 0 26 0;
#X connect 16 0 35 0;
#X connect 17 0 54 0;
#X connect 18 0 36 0;
#X connect 19 0 53 0;
#X connect 24 0 12 0;
#X connect 25 0 15 0;
#X connect 25 1 15 1;
#X connect 25 2 15 2;
#X connect 26 0 24 0;
#X connect 26 1 27 0;
#X connect 26 2 28 0;
#X connect 26 3 29 0;
#X connect 27 0 12 0;
#X connect 28 0 12 0;
#X connect 29 0 12 0;
#X connect 30 0 34 0;
#X connect 32 0 12 1;
#X connect 33 0 41 0;
#X connect 33 1 41 1;
#X connect 34 0 31 0;
#X connect 35 0 20 0;
#X connect 36 0 22 0;
#X connect 40 0 30 0;
#X connect 40 1 16 0;
#X connect 40 2 17 0;
#X connect 40 3 18 0;
#X connect 40 4 19 0;
#X connect 41 0 42 0;
#X connect 42 0 40 0;
#X connect 43 0 48 0;
#X connect 44 0 49 0;
#X connect 45 0 50 0;
#X connect 46 0 51 0;
#X connect 47 0 52 0;
#X connect 53 0 23 0;
#X connect 54 0 21 0;
#X coords 0 0 2 2 0 0 0;
