#N canvas 255 134 1157 733 12;
#X obj 542 315 notein;
#X floatatom 369 161 3 0 0 0 - - -;
#X floatatom 369 133 3 0 0 0 - - -;
#X obj 369 104 ctlin;
#X obj 565 522 dac~;
#X obj 224 104 notein;
#X text 274 158 midi number;
#X text 274 132 velocity;
#X text 224 77 MIDI NOTE;
#X text 369 77 MIDI CONTROL;
#X text 407 132 velocity;
#X text 407 158 midi number;
#X obj 565 493 *~;
#X floatatom 224 133 5 0 0 0 - - -;
#X floatatom 224 161 5 0 0 0 - - -;
#X obj 542 373 pack 0 0 0;
#X obj 172 361 vsl 15 128 0 127 0 1 empty empty Attack 0 -9 0 10 -262144
-1 -1 900 0;
#X obj 212 361 vsl 15 128 0 127 0 1 empty empty Decay 0 -9 0 10 -262144
-1 -1 1200 0;
#X obj 257 361 vsl 15 128 0 127 0 1 empty empty Sustain 0 -9 0 10 -262144
-1 -1 9200 0;
#X obj 303 361 vsl 15 128 0 127 0 1 empty empty Release 0 -9 0 10 -262144
-1 -1 1800 0;
#X obj 119 536 s attack;
#X obj 221 536 s decay;
#X obj 321 536 s sustain;
#X obj 395 536 s release;
#X obj 543 437 note;
#X obj 542 344 poly 4 1;
#X obj 542 402 route 1 2 3 4;
#X obj 565 464 note;
#X obj 597 437 note;
#X obj 631 464 note;
#X obj 117 361 vsl 15 128 0 127 0 0 empty empty Volume 0 -9 0 10 -262144
-1 -1 6000 0;
#X obj 55 536 s volume;
#X obj 680 464 r volume;
#X obj 116 285 ctlin;
#X obj 55 505 / 127;
#X obj 119 505 midilog 10000;
#X obj 221 505 midilog 10000;
#X obj 395 505 midilog 10000;
#X obj 321 505 midilog 1;
#X text 287 41 TEST MIDI IN;
#X obj 116 314 slider 82 83 28 29 81;
#X text 139 253 CONTROLS;
#X text 548 275 SYNTH;
#X connect 0 0 25 0;
#X connect 0 1 25 1;
#X connect 3 0 2 0;
#X connect 3 1 1 0;
#X connect 5 0 14 0;
#X connect 5 1 13 0;
#X connect 12 0 4 0;
#X connect 12 0 4 1;
#X connect 15 0 26 0;
#X connect 16 0 35 0;
#X connect 17 0 36 0;
#X connect 18 0 38 0;
#X connect 19 0 37 0;
#X connect 24 0 12 0;
#X connect 25 0 15 0;
#X connect 25 1 15 1;
#X connect 25 2 15 2;
#X connect 26 0 24 0;
#X connect 26 1 27 0;
#X connect 26 2 28 0;
#X connect 26 3 29 0;
#X connect 27 0 12 0;
#X connect 28 0 12 0;
#X connect 29 0 12 0;
#X connect 30 0 34 0;
#X connect 32 0 12 1;
#X connect 33 0 40 0;
#X connect 33 1 40 1;
#X connect 34 0 31 0;
#X connect 35 0 20 0;
#X connect 36 0 21 0;
#X connect 37 0 23 0;
#X connect 38 0 22 0;
#X connect 40 0 30 0;
#X connect 40 1 16 0;
#X connect 40 2 17 0;
#X connect 40 3 18 0;
#X connect 40 4 19 0;
#X coords 0 0 2 2 0 0 0;
