#N canvas 770 301 450 362 12;
#X text 48 13 Converts output of midi slider \, making it log-scale
;
#X obj 133 62 inlet;
#X obj 130 110 / 127;
#X obj 129 139 exp;
#X obj 129 165 - 1;
#X obj 125 225 * \$1;
#X obj 168 164 start at 0;
#X obj 126 194 / 1.71828;
#X obj 212 197 end at 1 (val= e-1);
#X text 194 229 scale by argument 1;
#X obj 146 271 outlet;
#X connect 1 0 2 0;
#X connect 2 0 3 0;
#X connect 3 0 4 0;
#X connect 4 0 7 0;
#X connect 5 0 10 0;
#X connect 7 0 5 0;
