#N canvas 2391 9 1200 587 12;
#X obj 103 118 notein;
#X floatatom 731 118 3 0 0 0 - - -;
#X floatatom 712 81 3 0 0 0 - - -;
#X obj 712 52 ctlin;
#X obj 712 109 bng 20 250 50 0 empty empty empty 17 7 0 10 -262144
-1 -1;
#X obj 111 325 dac~;
#X obj 567 52 notein;
#X text 617 106 midi number;
#X text 617 80 velocity;
#X text 567 25 MIDI NOTE;
#X text 712 25 MIDI CONTROL;
#X text 750 80 velocity;
#X text 750 106 midi number;
#X obj 111 296 *~;
#X floatatom 567 81 5 0 0 0 - - -;
#X floatatom 567 109 5 0 0 0 - - -;
#X obj 179 296 hsl 128 15 0 1 0 0 empty empty Volume -2 -8 0 10 -262144
-1 -1 2700 0;
#X obj 104 160 poly 1 1;
#X obj 104 189 pack 0 0 0;
#X obj 104 218 route 1;
#X obj 555 212 vsl 15 128 10 10010 1 0 empty empty Attack 0 -9 0 10
-262144 -1 -1 3700 0;
#X obj 625 214 vsl 15 128 10 10010 1 0 empty empty Decay 0 -9 0 10
-262144 -1 -1 3200 0;
#X obj 683 214 vsl 15 128 0.1 1.1 1 0 empty empty Sustain 0 -9 0 10
-262144 -1 -1 5300 0;
#X obj 755 213 vsl 15 128 10 10010 1 0 empty empty Release 0 -9 0 10
-262144 -1 -1 2600 0;
#X obj 554 375 s attack;
#X obj 625 374 s decay;
#X obj 681 374 s sustain;
#X obj 757 373 s release;
#X obj 105 252 note;
#X obj 554 345 - 10;
#X obj 625 347 - 10;
#X obj 682 347 - 0.1;
#X obj 755 349 - 10;
#X obj 176 481 unpack 0 0;
#X floatatom 311 503 5 0 0 0 - - -;
#X obj 243 516 sel 0;
#X floatatom 314 656 5 0 0 0 - - -;
#X obj 378 507 r release;
#X floatatom 378 533 5 0 0 0 - - -;
#X obj 305 613 pack 0 0;
#X floatatom 277 564 5 0 0 0 - - -;
#X connect 0 0 17 0;
#X connect 0 1 17 1;
#X connect 2 0 4 0;
#X connect 3 0 2 0;
#X connect 3 1 1 0;
#X connect 6 0 15 0;
#X connect 6 1 14 0;
#X connect 13 0 5 0;
#X connect 13 0 5 1;
#X connect 16 0 13 1;
#X connect 17 0 18 0;
#X connect 17 1 18 1;
#X connect 17 2 18 2;
#X connect 18 0 19 0;
#X connect 19 0 28 0;
#X connect 20 0 29 0;
#X connect 21 0 30 0;
#X connect 22 0 31 0;
#X connect 23 0 32 0;
#X connect 28 0 13 0;
#X connect 29 0 24 0;
#X connect 30 0 25 0;
#X connect 31 0 26 0;
#X connect 32 0 27 0;
#X connect 33 1 34 0;
#X connect 33 1 35 0;
#X connect 35 0 40 0;
#X connect 37 0 38 0;
#X connect 38 0 39 0;
#X connect 39 0 36 0;
#X connect 40 0 39 0;
#X coords 0 0 2 2 0 0 0;
