#N canvas 2391 659 1200 587 12;
#X obj 88 153 mtof;
#X floatatom 88 183 5 0 0 0 - - -;
#X text 129 149 "midi to frequency";
#X obj 86 242 *~;
#X obj 203 210 / 127;
#X text 249 208 modulate volume by key velocity;
#X obj 88 73 inlet;
#X obj 85 300 outlet~;
#X text 69 23 Create a note from MIDI input;
#X obj 159 184 adsr;
#X obj 86 268 *~;
#X obj 86 116 unpack 0 0;
#X obj 86 212 phasor~;
#X connect 0 0 1 0;
#X connect 1 0 12 0;
#X connect 3 0 10 0;
#X connect 4 0 10 1;
#X connect 6 0 11 0;
#X connect 9 0 3 1;
#X connect 10 0 7 0;
#X connect 11 0 0 0;
#X connect 11 1 4 0;
#X connect 11 1 9 0;
#X connect 12 0 3 0;
