#N canvas 2391 659 1200 587 12;
#X obj 88 153 mtof;
#X text 129 149 "midi to frequency";
#X obj 90 262 *~;
#X obj 208 222 / 127;
#X text 249 208 modulate volume by key velocity;
#X obj 88 73 inlet;
#X obj 91 337 outlet~;
#X text 69 23 Create a note from MIDI input;
#X obj 165 195 adsr;
#X obj 90 296 *~;
#X obj 88 111 unpack 0 0;
#X obj 90 190 phasor~;
#X obj 233 177 sel 0;
#X obj 90 216 -~ 0.5;
#X connect 0 0 11 0;
#X connect 2 0 9 0;
#X connect 3 0 9 1;
#X connect 5 0 10 0;
#X connect 8 0 2 1;
#X connect 9 0 6 0;
#X connect 10 0 0 0;
#X connect 10 1 12 0;
#X connect 10 1 8 0;
#X connect 11 0 13 0;
#X connect 12 1 3 0;
#X connect 13 0 2 0;
