#N canvas 759 279 671 566 12;
#X obj 55 341 spigot;
#X obj 254 172 expr if($f1 == \$1 \, 1 \, 0);
#X obj 53 131 inlet;
#X obj 186 132 inlet;
#X obj 55 375 outlet;
#X text 47 108 velocity;
#X obj 276 201 expr if($f1 == \$2 \, 1 \, 0);
#X obj 125 341 spigot;
#X text 180 111 midi number;
#X obj 125 375 outlet;
#X obj 297 231 expr if($f1 == \$3 \, 1 \, 0);
#X obj 324 255 expr if($f1 == \$4 \, 1 \, 0);
#X obj 202 340 spigot;
#X obj 196 378 outlet;
#X obj 269 346 spigot;
#X obj 269 380 outlet;
#X text 369 143 should be a way to output n outlets;
#X text 370 112 this is repetitive;
#X obj 336 347 spigot;
#X obj 336 381 outlet;
#X obj 364 284 expr if($f1 == \$5 \, 1 \, 0);
#X text 121 36 Output n slider values for n midi numbers;
#X connect 0 0 4 0;
#X connect 1 0 0 1;
#X connect 2 0 0 0;
#X connect 2 0 7 0;
#X connect 2 0 12 0;
#X connect 2 0 14 0;
#X connect 2 0 18 0;
#X connect 3 0 1 0;
#X connect 3 0 6 0;
#X connect 3 0 10 0;
#X connect 3 0 11 0;
#X connect 3 0 20 0;
#X connect 6 0 7 1;
#X connect 7 0 9 0;
#X connect 10 0 12 1;
#X connect 11 0 14 1;
#X connect 12 0 13 0;
#X connect 14 0 15 0;
#X connect 18 0 19 0;
#X connect 20 0 18 1;
